<svg width="36" height="34" viewBox="0 0 36 34" fill="none" xmlns="http://www.w3.org/2000/svg">
<path fill-rule="evenodd" clip-rule="evenodd" d="M5.69886 33.9416C5.36731 33.9099 5.03868 33.8652 4.71439 33.8082C4.22693 33.7225 3.82317 33.3876 3.65551 32.9299C3.48785 32.4723 3.58181 31.9615 3.90194 31.5903C4.6465 30.7272 5.17389 29.6815 5.4059 28.5326C5.4481 28.3236 5.36435 27.9583 4.93604 27.5488C1.89155 24.638 0 20.6875 0 16.32C0 7.19774 8.17469 0 17.9999 0C27.8251 0 35.9997 7.19774 35.9997 16.32C35.9997 25.4423 27.8251 32.64 17.9999 32.64C16.4617 32.64 14.9665 32.4649 13.5381 32.1347C11.6205 33.3165 9.35125 34 6.92303 34C6.51036 34 6.1018 33.9803 5.69886 33.9416Z" fill="url(#paint0_linear_3889_5659)"/>
<g filter="url(#filter0_d_3889_5659)">
<path d="M13.6736 21.5054C14.596 21.5054 15.3472 20.7542 15.3472 19.8318C15.3472 19.6411 15.3121 19.4582 15.2538 19.2869C15.028 18.6291 14.4053 18.1582 13.6736 18.1582C12.9419 18.1582 12.3191 18.633 12.0934 19.2869C12.035 19.4582 12 19.6411 12 19.8318C12 20.7542 12.7512 21.5054 13.6736 21.5054Z" fill="white"/>
<path d="M27 16.2826C27 11.1645 22.8355 7 17.7136 7H13.6386C12.8134 7 12.1362 7.67333 12.1362 8.50234V17.8355C12.5644 17.5164 13.0976 17.3256 13.6697 17.3256C14.2418 17.3256 14.775 17.5164 15.2032 17.8355V10.0008H17.7136C21.1775 10.0008 23.9953 12.8186 23.9953 16.2826C23.9953 19.7465 21.1775 22.5644 17.7136 22.5644H17.048H13.6386C12.8096 22.5644 12.1362 23.2338 12.1362 24.0667C12.1362 24.8996 12.8057 25.569 13.6386 25.569H17.048H17.7136C22.8316 25.569 27 21.4045 27 16.2865V16.2826Z" fill="white"/>
</g>
<defs>
<filter id="filter0_d_3889_5659" x="8" y="7" width="23" height="26.5693" filterUnits="userSpaceOnUse" color-interpolation-filters="sRGB">
<feFlood flood-opacity="0" result="BackgroundImageFix"/>
<feColorMatrix in="SourceAlpha" type="matrix" values="0 0 0 0 0 0 0 0 0 0 0 0 0 0 0 0 0 0 127 0" result="hardAlpha"/>
<feOffset dy="4"/>
<feGaussianBlur stdDeviation="2"/>
<feComposite in2="hardAlpha" operator="out"/>
<feColorMatrix type="matrix" values="0 0 0 0 0 0 0 0 0 0 0 0 0 0 0 0 0 0 0.1 0"/>
<feBlend mode="normal" in2="BackgroundImageFix" result="effect1_dropShadow_3889_5659"/>
<feBlend mode="normal" in="SourceGraphic" in2="effect1_dropShadow_3889_5659" result="shape"/>
</filter>
<linearGradient id="paint0_linear_3889_5659" x1="6.74995" y1="-6.76394e-07" x2="32.8492" y2="28.9884" gradientUnits="userSpaceOnUse">
<stop stop-color="#00BBC6"/>
<stop offset="0.61" stop-color="#7133FF"/>
<stop offset="0.904041" stop-color="#CD21FF"/>
</linearGradient>
</defs>
</svg>
