<svg width="29" height="30" viewBox="0 0 29 30" fill="none" xmlns="http://www.w3.org/2000/svg">
<g filter="url(#filter0_d_4103_2467)">
<path fill-rule="evenodd" clip-rule="evenodd" d="M21.9598 1.91992C22.0955 1.91992 22.2148 2.0099 22.2521 2.14041L22.5817 3.29406C22.726 3.79902 23.1207 4.19373 23.6257 4.338L24.7793 4.66762C24.9098 4.7049 24.9998 4.82419 24.9998 4.95992C24.9998 5.09565 24.9098 5.21493 24.7793 5.25222L23.6257 5.58184C23.1207 5.72611 22.726 6.12082 22.5817 6.62578L22.2521 7.77943C22.2148 7.90994 22.0955 7.99992 21.9598 7.99992C21.8241 7.99992 21.7048 7.90994 21.6675 7.77943L21.3379 6.62578C21.1936 6.12082 20.7989 5.72611 20.2939 5.58184L19.1403 5.25222C19.0098 5.21493 18.9198 5.09565 18.9198 4.95992C18.9198 4.82419 19.0098 4.7049 19.1403 4.66762L20.2939 4.338C20.7989 4.19373 21.1936 3.79902 21.3379 3.29406L21.6675 2.14041C21.7048 2.0099 21.8241 1.91992 21.9598 1.91992Z" fill="#8A30BE"/>
<path fill-rule="evenodd" clip-rule="evenodd" d="M18.7598 0C18.8384 0 18.9075 0.0520919 18.929 0.127649L19.1199 0.795554C19.2034 1.0879 19.4319 1.31641 19.7243 1.39994L20.3922 1.59077C20.4677 1.61236 20.5198 1.68142 20.5198 1.76C20.5198 1.83858 20.4677 1.90764 20.3922 1.92923L19.7243 2.12006C19.4319 2.20358 19.2034 2.4321 19.1199 2.72444L18.929 3.39235C18.9075 3.4679 18.8384 3.52 18.7598 3.52C18.6812 3.52 18.6122 3.4679 18.5906 3.39235L18.3998 2.72444C18.3162 2.4321 18.0877 2.20358 17.7954 2.12006L17.1275 1.92923C17.0519 1.90764 16.9998 1.83858 16.9998 1.76C16.9998 1.68142 17.0519 1.61236 17.1275 1.59077L17.7954 1.39994C18.0877 1.31641 18.3162 1.0879 18.3998 0.795554L18.5906 0.127649C18.6122 0.0520919 18.6812 0 18.7598 0Z" fill="#8A30BE"/>
</g>
<g filter="url(#filter1_d_4103_2467)">
<path d="M5.67342 17.0072C6.59582 17.0072 7.34697 16.2561 7.34697 15.3337C7.34697 15.143 7.31194 14.9601 7.25356 14.7888C7.02783 14.1311 6.40511 13.6602 5.67342 13.6602C4.94173 13.6602 4.31902 14.135 4.09329 14.7888C4.03491 14.9601 3.99988 15.143 3.99988 15.3337C3.99988 16.2561 4.75103 17.0072 5.67342 17.0072Z" fill="#5A6170"/>
<path d="M18.9999 11.7823C18.9999 6.66441 14.8355 2.5 9.71367 2.5H5.63877C4.81368 2.5 4.13647 3.17331 4.13647 4.0023V13.3352C4.56459 13.0161 5.09779 12.8254 5.66991 12.8254C6.24203 12.8254 6.77523 13.0161 7.20335 13.3352V5.50071H9.71367C13.1775 5.50071 15.9953 8.31849 15.9953 11.7823C15.9953 15.2462 13.1775 18.064 9.71367 18.064H9.04814H5.63877C4.80979 18.064 4.13647 18.7334 4.13647 19.5663C4.13647 20.3992 4.80589 21.0686 5.63877 21.0686H9.04814H9.71367C14.8316 21.0686 18.9999 16.9042 18.9999 11.7862V11.7823Z" fill="#5A6170"/>
</g>
<defs>
<filter id="filter0_d_4103_2467" x="13.7998" y="0" width="14.4" height="14.4" filterUnits="userSpaceOnUse" color-interpolation-filters="sRGB">
<feFlood flood-opacity="0" result="BackgroundImageFix"/>
<feColorMatrix in="SourceAlpha" type="matrix" values="0 0 0 0 0 0 0 0 0 0 0 0 0 0 0 0 0 0 127 0" result="hardAlpha"/>
<feOffset dy="3.2"/>
<feGaussianBlur stdDeviation="1.6"/>
<feComposite in2="hardAlpha" operator="out"/>
<feColorMatrix type="matrix" values="0 0 0 0 0 0 0 0 0 0 0 0 0 0 0 0 0 0 0.1 0"/>
<feBlend mode="normal" in2="BackgroundImageFix" result="effect1_dropShadow_4103_2467"/>
<feBlend mode="normal" in="SourceGraphic" in2="effect1_dropShadow_4103_2467" result="shape"/>
</filter>
<filter id="filter1_d_4103_2467" x="-2.59876e-05" y="2.5" width="22.9998" height="26.5682" filterUnits="userSpaceOnUse" color-interpolation-filters="sRGB">
<feFlood flood-opacity="0" result="BackgroundImageFix"/>
<feColorMatrix in="SourceAlpha" type="matrix" values="0 0 0 0 0 0 0 0 0 0 0 0 0 0 0 0 0 0 127 0" result="hardAlpha"/>
<feOffset dy="3.9999"/>
<feGaussianBlur stdDeviation="1.99995"/>
<feComposite in2="hardAlpha" operator="out"/>
<feColorMatrix type="matrix" values="0 0 0 0 0 0 0 0 0 0 0 0 0 0 0 0 0 0 0.1 0"/>
<feBlend mode="normal" in2="BackgroundImageFix" result="effect1_dropShadow_4103_2467"/>
<feBlend mode="normal" in="SourceGraphic" in2="effect1_dropShadow_4103_2467" result="shape"/>
</filter>
</defs>
</svg>
