<svg width="24" height="24" viewBox="0 0 24 24" fill="none" xmlns="http://www.w3.org/2000/svg">
<path d="M3.95105 12.6721H18.9315C19.3817 12.6721 19.6317 12.9792 19.6317 13.2248V19.7834C19.6314 20.0289 19.3814 20.3351 18.9315 20.3352H3.95105C3.50113 20.3352 3.25116 20.0289 3.25085 19.7834V13.2248C3.25085 12.9792 3.50085 12.6721 3.95105 12.6721Z" stroke="#373F4E"/>
<path d="M12.0122 11.2522L12.0122 4.3645C12.0122 3.70176 11.5409 3.1645 10.9596 3.1645L4.4013 3.1645C3.82 3.1645 3.34875 3.70176 3.34875 4.3645L3.34875 11.2764" stroke="#373F4E" stroke-width="0.8" stroke-linecap="round" stroke-linejoin="round" stroke-dasharray="2 2"/>
<path d="M15.4906 7.06818L13.8784 5.38654L13.879 5.38596M19.1889 11.2742C20.2905 9.45583 19.7095 7.08875 17.8911 5.98713C17.2913 5.62375 16.6318 5.44345 15.9777 5.43026L13.879 5.38596M15.5601 3.77442L13.879 5.38596" stroke="#373F4E" stroke-width="0.7" stroke-linecap="round" stroke-linejoin="round"/>
</svg>
