<svg width="25" height="25" viewBox="0 0 25 25" fill="none" xmlns="http://www.w3.org/2000/svg">
<path fill-rule="evenodd" clip-rule="evenodd" d="M22.7156 1.6377C22.9975 1.91788 23.1551 2.29769 23.1551 2.69238V15.2471C23.1551 15.6418 22.9975 16.0216 22.7156 16.3018C22.4337 16.582 22.0504 16.7402 21.6502 16.7402H9.02033C8.62015 16.7402 8.23686 16.5819 7.9549 16.3018C7.67304 16.0216 7.51447 15.6418 7.51447 15.2471V2.69238C7.51447 2.29769 7.67304 1.91788 7.9549 1.6377C8.23685 1.35764 8.6202 1.19922 9.02033 1.19922H21.6502C22.0504 1.19922 22.4337 1.35757 22.7156 1.6377ZM23.5623 17.1523C24.0698 16.6477 24.3553 15.9622 24.3553 15.2471V2.69238C24.3553 1.97725 24.0698 1.29176 23.5623 0.787109C23.0548 0.282556 22.3665 0 21.6502 0H9.02033C8.30405 0 7.61579 0.282556 7.10822 0.787109C6.60063 1.29177 6.31525 1.97719 6.31525 2.69238V6.42038H2.70508C1.9888 6.42038 1.30054 6.70294 0.792969 7.20749C0.285382 7.71215 0 8.39757 0 9.11276V21.6674C0 22.3826 0.285456 23.0681 0.792969 23.5727C1.30054 24.0773 1.9888 24.3608 2.70508 24.3608H15.335C16.0512 24.3608 16.7395 24.0773 17.2471 23.5727C17.7545 23.0681 18.04 22.3825 18.04 21.6674V17.9404H21.6502C22.3665 17.9404 23.0548 17.6569 23.5623 17.1523ZM16.8398 17.9404H9.02033C8.30405 17.9404 7.61579 17.6569 7.10822 17.1523C6.60071 16.6477 6.31525 15.9622 6.31525 15.2471V7.6196H2.70508C2.30495 7.6196 1.92159 7.77802 1.63965 8.05807C1.35778 8.33826 1.19922 8.71807 1.19922 9.11276V21.6674C1.19922 22.0621 1.35778 22.4419 1.63965 22.7221C1.92161 23.0023 2.3049 23.1606 2.70508 23.1606H15.335C15.7352 23.1606 16.1184 23.0023 16.4004 22.7221C16.6823 22.4419 16.8398 22.0621 16.8398 21.6674V17.9404Z" fill="#373F4E"/>
</svg>
