<svg width="24" height="24" viewBox="0 0 24 24" fill="none" xmlns="http://www.w3.org/2000/svg">
<path d="M12.0008 1.17587C9.51675 3.52788 6.14475 4.97988 2.44875 4.97988C2.1008 4.97988 2.32875 4.97988 2.26875 4.97988C1.82475 6.34788 1.57275 7.79987 1.57275 9.32387C1.57275 15.7919 6.00075 21.2399 11.9888 22.7759C17.9768 21.2279 22.4048 15.7919 22.4048 9.32387C22.4048 7.43978 22.1648 6.34788 21.7088 4.97988C21.6488 4.97988 21.5888 4.97988 21.5288 4.97988C17.8328 4.97988 14.4728 3.52788 11.9768 1.17587H12.0008Z" stroke="#373F4E" stroke-width="1.24" stroke-linecap="round" stroke-linejoin="round"/>
<path d="M8.93986 18.0482L6.08386 15.1922L8.93986 12.3362" stroke="#373F4E" stroke-width="1.24" stroke-linecap="round" stroke-linejoin="round"/>
<path d="M6.9967 15.1921H14.3287" stroke="#373F4E" stroke-width="1.24" stroke-linecap="round" stroke-linejoin="round"/>
<path d="M14.9655 6.84006L17.8215 9.69606L14.9655 12.5521" stroke="#373F4E" stroke-width="1.24" stroke-linecap="round" stroke-linejoin="round"/>
<path d="M16.8949 9.69604H9.57483" stroke="#373F4E" stroke-width="1.24" stroke-linecap="round" stroke-linejoin="round"/>
</svg>
