<svg width="36" height="36" viewBox="0 0 36 36" fill="none" xmlns="http://www.w3.org/2000/svg">
<g clip-path="url(#clip0_2021_205)">
<path d="M18 36C27.9411 36 36 27.9411 36 18C36 8.05888 27.9411 0 18 0C8.05888 0 0 8.05888 0 18C0 27.9411 8.05888 36 18 36Z" fill="#4C92D9"/>
<mask id="mask0_2021_205" style="mask-type:luminance" maskUnits="userSpaceOnUse" x="10" y="6" width="20" height="24">
<path d="M29.2494 6.73438H10.8003V29.2659H29.2494V6.73438Z" fill="white"/>
</mask>
<g mask="url(#mask0_2021_205)">
<mask id="mask1_2021_205" style="mask-type:luminance" maskUnits="userSpaceOnUse" x="10" y="6" width="20" height="24">
<path d="M29.2497 6.73633H10.8006V29.2678H29.2497V6.73633Z" fill="white"/>
</mask>
<g mask="url(#mask1_2021_205)">
<path d="M14.5449 22.5427C14.5449 23.5768 13.7061 24.4147 12.6729 24.4147C11.6397 24.4147 10.8018 23.5759 10.8018 22.5427C10.8018 21.5095 11.6406 20.6707 12.6729 20.6707C13.7052 20.6707 14.5449 21.5095 14.5449 22.5427Z" fill="white"/>
<path d="M27.7857 12.1412C26.8092 10.4465 25.4691 9.12166 23.7636 8.16766C22.0581 7.21276 20.1006 6.73486 17.8911 6.73486H12.8439C11.7522 6.73486 10.8675 7.59436 10.8117 8.67346V19.928C11.3364 19.5536 11.9781 19.3304 12.6729 19.3304C13.3677 19.3304 14.0175 19.5563 14.5449 19.9361V10.2107H17.8911C18.9414 10.2107 19.9287 10.4087 20.8512 10.8056C21.7737 11.2034 22.5774 11.7542 23.2641 12.4625C23.9499 13.1708 24.4863 13.997 24.8733 14.9411C25.2585 15.8852 25.452 16.904 25.452 17.9984C25.452 19.0928 25.2585 20.1116 24.8733 21.0548C24.4872 21.9989 23.9499 22.8251 23.2641 23.5334C22.5765 24.2408 21.7728 24.7934 20.8512 25.1903C19.9278 25.5881 18.9414 25.7852 17.8911 25.7852H12.5739C12.564 25.7852 12.5541 25.7825 12.5433 25.7825C11.5803 25.7825 10.8 26.5628 10.8 27.5258C10.8 28.4888 11.5803 29.2691 12.5433 29.2691C12.5685 29.2691 12.5919 29.2628 12.6162 29.2619H17.8902C20.0997 29.2619 22.0572 28.7786 23.7627 27.8138C25.4682 26.849 26.8083 25.5188 27.7848 23.8232C28.7613 22.1294 29.2491 20.1872 29.2491 17.9993C29.2491 15.8114 28.7613 13.8377 27.7848 12.143" fill="white"/>
</g>
</g>
</g>
<defs>
<clipPath id="clip0_2021_205">
<rect width="36" height="36" fill="white"/>
</clipPath>
</defs>
</svg>
